<svg width="1000" height="1300" viewBox="0 0 1000 1300" fill="none" xmlns="http://www.w3.org/2000/svg">
<rect x="0.5" y="0.5" width="999" height="1299" rx="79.5" stroke="white"/>
<path d="M492.407 329.291C474.266 329.376 456.95 330.919 441.704 333.617C396.802 341.55 388.655 358.153 388.655 388.776V429.214H494.758V442.694H348.832C317.997 442.694 290.996 461.226 282.548 496.495C272.803 536.907 272.373 562.13 282.548 604.329C290.089 635.744 308.102 658.122 338.94 658.122H375.425V609.644C375.425 574.621 405.722 543.73 441.709 543.73H547.691C577.193 543.73 600.74 519.436 600.74 489.813V388.781C600.74 360.022 576.48 338.421 547.691 333.622C529.455 330.588 510.545 329.209 492.407 329.291ZM435.027 361.814C445.984 361.814 454.939 370.91 454.939 382.099C454.939 393.241 445.988 402.251 435.027 402.251C424.027 402.251 415.12 393.241 415.12 382.099C415.115 370.91 424.027 361.814 435.027 361.814Z" fill="url(#paint0_linear_2012_4)"/>
<path d="M618.946 452.031V499.151C618.946 535.674 587.974 566.418 552.662 566.418H446.68C417.65 566.418 393.631 591.267 393.631 620.34V721.381C393.631 750.131 418.63 767.048 446.68 775.294C480.264 785.164 512.474 786.951 552.662 775.294C579.372 767.555 605.712 751.992 605.712 721.381V680.939H499.734V667.455H658.769C689.604 667.455 701.102 645.949 711.827 613.662C722.905 580.426 722.428 548.462 711.827 505.828C704.205 475.127 689.651 452.027 658.769 452.027L618.946 452.031ZM559.336 707.897C570.34 707.897 579.247 716.908 579.247 728.058C579.247 739.239 570.336 748.335 559.336 748.335C548.378 748.335 539.428 739.239 539.428 728.058C539.428 716.908 548.378 707.897 559.336 707.897Z" fill="url(#paint1_linear_2012_4)"/>
<path opacity="0.444" d="M643.125 799.893C643.125 815.117 579.462 827.462 500.937 827.462C422.407 827.462 358.745 815.117 358.745 799.893C358.745 784.665 422.403 772.32 500.937 772.32C579.462 772.32 643.125 784.661 643.125 799.893Z" fill="url(#paint2_radial_2012_4)"/>
<path d="M340.886 1044V974.182H367.068C372.432 974.182 376.932 975.182 380.568 977.182C384.227 979.182 386.989 981.932 388.852 985.432C390.739 988.909 391.682 992.864 391.682 997.295C391.682 1001.77 390.739 1005.75 388.852 1009.23C386.966 1012.7 384.182 1015.44 380.5 1017.44C376.818 1019.42 372.284 1020.41 366.898 1020.41H349.545V1010.01H365.193C368.33 1010.01 370.898 1009.47 372.898 1008.38C374.898 1007.28 376.375 1005.78 377.33 1003.88C378.307 1001.97 378.795 999.773 378.795 997.295C378.795 994.818 378.307 992.636 377.33 990.75C376.375 988.864 374.886 987.398 372.864 986.352C370.864 985.284 368.284 984.75 365.125 984.75H353.534V1044H340.886ZM409.793 1063.64C408.111 1063.64 406.554 1063.5 405.122 1063.23C403.713 1062.98 402.588 1062.68 401.747 1062.34L404.611 1052.73C406.406 1053.25 408.009 1053.5 409.418 1053.48C410.827 1053.45 412.065 1053.01 413.134 1052.15C414.224 1051.31 415.145 1049.9 415.895 1047.92L416.952 1045.09L397.963 991.636H411.054L423.122 1031.18H423.668L435.77 991.636H448.895L427.929 1050.34C426.952 1053.11 425.656 1055.49 424.043 1057.47C422.429 1059.47 420.452 1060.99 418.111 1062.03C415.793 1063.1 413.02 1063.64 409.793 1063.64ZM483.582 991.636V1001.18H453.48V991.636H483.582ZM460.912 979.091H473.253V1028.25C473.253 1029.91 473.503 1031.18 474.003 1032.07C474.526 1032.93 475.207 1033.52 476.048 1033.84C476.889 1034.16 477.821 1034.32 478.844 1034.32C479.616 1034.32 480.321 1034.26 480.957 1034.15C481.616 1034.03 482.116 1033.93 482.457 1033.84L484.537 1043.49C483.878 1043.72 482.935 1043.97 481.707 1044.24C480.503 1044.51 479.026 1044.67 477.276 1044.72C474.185 1044.81 471.401 1044.34 468.923 1043.32C466.446 1042.27 464.48 1040.66 463.026 1038.48C461.594 1036.3 460.889 1033.57 460.912 1030.3V979.091ZM507.369 1013.32V1044H495.028V974.182H507.097V1000.53H507.71C508.938 997.58 510.835 995.25 513.403 993.545C515.994 991.818 519.29 990.955 523.29 990.955C526.926 990.955 530.097 991.716 532.801 993.239C535.506 994.761 537.597 996.989 539.074 999.92C540.574 1002.85 541.324 1006.43 541.324 1010.66V1044H528.983V1012.57C528.983 1009.05 528.074 1006.31 526.256 1004.35C524.46 1002.37 521.938 1001.39 518.688 1001.39C516.506 1001.39 514.551 1001.86 512.824 1002.82C511.119 1003.75 509.778 1005.1 508.801 1006.88C507.847 1008.65 507.369 1010.8 507.369 1013.32ZM576.744 1045.02C571.631 1045.02 567.199 1043.9 563.449 1041.65C559.699 1039.4 556.79 1036.25 554.722 1032.2C552.676 1028.16 551.653 1023.43 551.653 1018.02C551.653 1012.61 552.676 1007.87 554.722 1003.81C556.79 999.739 559.699 996.58 563.449 994.33C567.199 992.08 571.631 990.955 576.744 990.955C581.858 990.955 586.29 992.08 590.04 994.33C593.79 996.58 596.688 999.739 598.733 1003.81C600.801 1007.87 601.835 1012.61 601.835 1018.02C601.835 1023.43 600.801 1028.16 598.733 1032.2C596.688 1036.25 593.79 1039.4 590.04 1041.65C586.29 1043.9 581.858 1045.02 576.744 1045.02ZM576.812 1035.14C579.585 1035.14 581.903 1034.37 583.767 1032.85C585.631 1031.31 587.017 1029.24 587.926 1026.65C588.858 1024.06 589.324 1021.17 589.324 1017.99C589.324 1014.78 588.858 1011.89 587.926 1009.3C587.017 1006.68 585.631 1004.6 583.767 1003.06C581.903 1001.51 579.585 1000.74 576.812 1000.74C573.972 1000.74 571.608 1001.51 569.722 1003.06C567.858 1004.6 566.46 1006.68 565.528 1009.3C564.619 1011.89 564.165 1014.78 564.165 1017.99C564.165 1021.17 564.619 1024.06 565.528 1026.65C566.46 1029.24 567.858 1031.31 569.722 1032.85C571.608 1034.37 573.972 1035.14 576.812 1035.14ZM624.651 1013.32V1044H612.31V991.636H624.105V1000.53H624.719C625.923 997.602 627.844 995.273 630.48 993.545C633.139 991.818 636.423 990.955 640.332 990.955C643.946 990.955 647.094 991.727 649.776 993.273C652.48 994.818 654.571 997.057 656.048 999.989C657.548 1002.92 658.287 1006.48 658.264 1010.66V1044H645.923V1012.57C645.923 1009.07 645.014 1006.33 643.196 1004.35C641.401 1002.37 638.912 1001.39 635.73 1001.39C633.571 1001.39 631.651 1001.86 629.969 1002.82C628.31 1003.75 627.003 1005.1 626.048 1006.88C625.116 1008.65 624.651 1010.8 624.651 1013.32Z" fill="white"/>
<defs>
<linearGradient id="paint0_linear_2012_4" x1="264.441" y1="341.935" x2="509.164" y2="550.633" gradientUnits="userSpaceOnUse">
<stop stop-color="#5A9FD4"/>
<stop offset="1" stop-color="#306998"/>
</linearGradient>
<linearGradient id="paint1_linear_2012_4" x1="606.214" y1="689.701" x2="518.452" y2="566.63" gradientUnits="userSpaceOnUse">
<stop stop-color="#FFD43B"/>
<stop offset="1" stop-color="#FFE873"/>
</linearGradient>
<radialGradient id="paint2_radial_2012_4" cx="0" cy="0" r="1" gradientUnits="userSpaceOnUse" gradientTransform="translate(500.362 799.104) rotate(-90) scale(27.5787 121.231)">
<stop stop-color="#B8B8B8" stop-opacity="0.498"/>
<stop offset="1" stop-color="#7F7F7F" stop-opacity="0"/>
</radialGradient>
</defs>
</svg>
